<svg xmlns="http://www.w3.org/2000/svg" viewBox="0 0 1200 880" font-family="Inter, -apple-system, system-ui, sans-serif">
  <rect width="1200" height="880" fill="#fafafa"/>

  <!-- Title -->
  <text x="600" y="45" text-anchor="middle" font-size="32" font-weight="700" fill="#1e1e1e">.ai/ vs. Everything Else</text>
  <text x="600" y="72" text-anchor="middle" font-size="16" fill="#757575">Why structured context beats every alternative</text>

  <!-- Column headers -->
  <rect x="10" y="100" width="240" height="50" rx="8" fill="#1e1e1e"/>
  <text x="130" y="130" text-anchor="middle" font-size="16" font-weight="700" fill="#e5e5e5">CAPABILITY</text>

  <rect x="260" y="100" width="210" height="50" rx="8" fill="#22c55e"/>
  <text x="365" y="132" text-anchor="middle" font-size="18" font-weight="700" fill="white">.ai/ (dot ai)</text>

  <rect x="480" y="100" width="210" height="50" rx="8" fill="#ef4444"/>
  <text x="585" y="132" text-anchor="middle" font-size="18" font-weight="700" fill="white">Jira / Linear</text>

  <rect x="700" y="100" width="210" height="50" rx="8" fill="#f59e0b"/>
  <text x="805" y="132" text-anchor="middle" font-size="18" font-weight="700" fill="white">Vibe Coding</text>

  <rect x="920" y="100" width="210" height="50" rx="8" fill="#4a9eed"/>
  <text x="1025" y="132" text-anchor="middle" font-size="18" font-weight="700" fill="white">Spec Kit / Kiro</text>

  <!-- Row 1 -->
  <rect x="10" y="160" width="240" height="48" rx="4" fill="#f0f0f0" stroke="#e0e0e0" stroke-width="1"/>
  <text x="130" y="189" text-anchor="middle" font-size="14" font-weight="500" fill="#1e1e1e">Spec-driven backlog</text>
  <rect x="260" y="160" width="210" height="48" rx="4" fill="#b2f2bb" stroke="#e0e0e0" stroke-width="1"/>
  <text x="365" y="189" text-anchor="middle" font-size="14" fill="#15803d">Full (12 primitives)</text>
  <rect x="480" y="160" width="210" height="48" rx="4" fill="#ffc9c9" stroke="#e0e0e0" stroke-width="1"/>
  <text x="585" y="189" text-anchor="middle" font-size="14" fill="#991b1b">Tickets, not specs</text>
  <rect x="700" y="160" width="210" height="48" rx="4" fill="#ffc9c9" stroke="#e0e0e0" stroke-width="1"/>
  <text x="805" y="189" text-anchor="middle" font-size="14" fill="#991b1b">No structure at all</text>
  <rect x="920" y="160" width="210" height="48" rx="4" fill="#b2f2bb" stroke="#e0e0e0" stroke-width="1"/>
  <text x="1025" y="189" text-anchor="middle" font-size="14" fill="#15803d">Specs only</text>

  <!-- Row 2 -->
  <rect x="10" y="218" width="240" height="48" rx="4" fill="#f8f8f8" stroke="#e0e0e0" stroke-width="1"/>
  <text x="130" y="247" text-anchor="middle" font-size="14" font-weight="500" fill="#1e1e1e">Design system integration</text>
  <rect x="260" y="218" width="210" height="48" rx="4" fill="#b2f2bb" stroke="#e0e0e0" stroke-width="1"/>
  <text x="365" y="247" text-anchor="middle" font-size="14" fill="#15803d">DESIGN.md built-in</text>
  <rect x="480" y="218" width="210" height="48" rx="4" fill="#ffc9c9" stroke="#e0e0e0" stroke-width="1"/>
  <text x="585" y="247" text-anchor="middle" font-size="14" fill="#991b1b">Separate tools</text>
  <rect x="700" y="218" width="210" height="48" rx="4" fill="#ffc9c9" stroke="#e0e0e0" stroke-width="1"/>
  <text x="805" y="247" text-anchor="middle" font-size="14" fill="#991b1b">None</text>
  <rect x="920" y="218" width="210" height="48" rx="4" fill="#ffc9c9" stroke="#e0e0e0" stroke-width="1"/>
  <text x="1025" y="247" text-anchor="middle" font-size="14" fill="#991b1b">Not included</text>

  <!-- Row 3 -->
  <rect x="10" y="276" width="240" height="48" rx="4" fill="#f0f0f0" stroke="#e0e0e0" stroke-width="1"/>
  <text x="130" y="305" text-anchor="middle" font-size="14" font-weight="500" fill="#1e1e1e">Agent behavior rules</text>
  <rect x="260" y="276" width="210" height="48" rx="4" fill="#b2f2bb" stroke="#e0e0e0" stroke-width="1"/>
  <text x="365" y="305" text-anchor="middle" font-size="14" fill="#15803d">AGENTS.md + immune sys</text>
  <rect x="480" y="276" width="210" height="48" rx="4" fill="#ffc9c9" stroke="#e0e0e0" stroke-width="1"/>
  <text x="585" y="305" text-anchor="middle" font-size="14" fill="#991b1b">Not agent-aware</text>
  <rect x="700" y="276" width="210" height="48" rx="4" fill="#ffc9c9" stroke="#e0e0e0" stroke-width="1"/>
  <text x="805" y="305" text-anchor="middle" font-size="14" fill="#991b1b">No rules</text>
  <rect x="920" y="276" width="210" height="48" rx="4" fill="#fff3bf" stroke="#e0e0e0" stroke-width="1"/>
  <text x="1025" y="305" text-anchor="middle" font-size="14" fill="#92400e">Basic guidance</text>

  <!-- Row 4 -->
  <rect x="10" y="334" width="240" height="48" rx="4" fill="#f8f8f8" stroke="#e0e0e0" stroke-width="1"/>
  <text x="130" y="363" text-anchor="middle" font-size="14" font-weight="500" fill="#1e1e1e">Plan review workflow</text>
  <rect x="260" y="334" width="210" height="48" rx="4" fill="#b2f2bb" stroke="#e0e0e0" stroke-width="1"/>
  <text x="365" y="363" text-anchor="middle" font-size="14" fill="#15803d">1-6 cycles + approve</text>
  <rect x="480" y="334" width="210" height="48" rx="4" fill="#ffc9c9" stroke="#e0e0e0" stroke-width="1"/>
  <text x="585" y="363" text-anchor="middle" font-size="14" fill="#991b1b">Sprint planning only</text>
  <rect x="700" y="334" width="210" height="48" rx="4" fill="#ffc9c9" stroke="#e0e0e0" stroke-width="1"/>
  <text x="805" y="363" text-anchor="middle" font-size="14" fill="#991b1b">No planning</text>
  <rect x="920" y="334" width="210" height="48" rx="4" fill="#b2f2bb" stroke="#e0e0e0" stroke-width="1"/>
  <text x="1025" y="363" text-anchor="middle" font-size="14" fill="#15803d">Plan generation</text>

  <!-- Row 5 -->
  <rect x="10" y="392" width="240" height="48" rx="4" fill="#f0f0f0" stroke="#e0e0e0" stroke-width="1"/>
  <text x="130" y="421" text-anchor="middle" font-size="14" font-weight="500" fill="#1e1e1e">Security guardrails</text>
  <rect x="260" y="392" width="210" height="48" rx="4" fill="#b2f2bb" stroke="#e0e0e0" stroke-width="1"/>
  <text x="365" y="421" text-anchor="middle" font-size="14" fill="#15803d">Guards + BOUNDARIES</text>
  <rect x="480" y="392" width="210" height="48" rx="4" fill="#ffc9c9" stroke="#e0e0e0" stroke-width="1"/>
  <text x="585" y="421" text-anchor="middle" font-size="14" fill="#991b1b">Not included</text>
  <rect x="700" y="392" width="210" height="48" rx="4" fill="#ffc9c9" stroke="#e0e0e0" stroke-width="1"/>
  <text x="805" y="421" text-anchor="middle" font-size="14" fill="#991b1b">45% ship vulnerable</text>
  <rect x="920" y="392" width="210" height="48" rx="4" fill="#fff3bf" stroke="#e0e0e0" stroke-width="1"/>
  <text x="1025" y="421" text-anchor="middle" font-size="14" fill="#92400e">Basic only</text>

  <!-- Row 6 -->
  <rect x="10" y="450" width="240" height="48" rx="4" fill="#f8f8f8" stroke="#e0e0e0" stroke-width="1"/>
  <text x="130" y="479" text-anchor="middle" font-size="14" font-weight="500" fill="#1e1e1e">Session resumption</text>
  <rect x="260" y="450" width="210" height="48" rx="4" fill="#b2f2bb" stroke="#e0e0e0" stroke-width="1"/>
  <text x="365" y="479" text-anchor="middle" font-size="14" fill="#15803d">Checkpoints + skill</text>
  <rect x="480" y="450" width="210" height="48" rx="4" fill="#ffc9c9" stroke="#e0e0e0" stroke-width="1"/>
  <text x="585" y="479" text-anchor="middle" font-size="14" fill="#991b1b">N/A (human memory)</text>
  <rect x="700" y="450" width="210" height="48" rx="4" fill="#ffc9c9" stroke="#e0e0e0" stroke-width="1"/>
  <text x="805" y="479" text-anchor="middle" font-size="14" fill="#991b1b">Agent forgets</text>
  <rect x="920" y="450" width="210" height="48" rx="4" fill="#ffc9c9" stroke="#e0e0e0" stroke-width="1"/>
  <text x="1025" y="479" text-anchor="middle" font-size="14" fill="#991b1b">Not included</text>

  <!-- Row 7 -->
  <rect x="10" y="508" width="240" height="48" rx="4" fill="#f0f0f0" stroke="#e0e0e0" stroke-width="1"/>
  <text x="130" y="537" text-anchor="middle" font-size="14" font-weight="500" fill="#1e1e1e">Multi-agent concurrency</text>
  <rect x="260" y="508" width="210" height="48" rx="4" fill="#b2f2bb" stroke="#e0e0e0" stroke-width="1"/>
  <text x="365" y="537" text-anchor="middle" font-size="14" fill="#15803d">CONCURRENCY.md</text>
  <rect x="480" y="508" width="210" height="48" rx="4" fill="#ffc9c9" stroke="#e0e0e0" stroke-width="1"/>
  <text x="585" y="537" text-anchor="middle" font-size="14" fill="#991b1b">Human coordination</text>
  <rect x="700" y="508" width="210" height="48" rx="4" fill="#ffc9c9" stroke="#e0e0e0" stroke-width="1"/>
  <text x="805" y="537" text-anchor="middle" font-size="14" fill="#991b1b">Not addressed</text>
  <rect x="920" y="508" width="210" height="48" rx="4" fill="#ffc9c9" stroke="#e0e0e0" stroke-width="1"/>
  <text x="1025" y="537" text-anchor="middle" font-size="14" fill="#991b1b">Not included</text>

  <!-- Row 8 -->
  <rect x="10" y="566" width="240" height="48" rx="4" fill="#f8f8f8" stroke="#e0e0e0" stroke-width="1"/>
  <text x="130" y="595" text-anchor="middle" font-size="14" font-weight="500" fill="#1e1e1e">Context budget mgmt</text>
  <rect x="260" y="566" width="210" height="48" rx="4" fill="#b2f2bb" stroke="#e0e0e0" stroke-width="1"/>
  <text x="365" y="595" text-anchor="middle" font-size="14" fill="#15803d">CONTEXT.md profiles</text>
  <rect x="480" y="566" width="210" height="48" rx="4" fill="#ffc9c9" stroke="#e0e0e0" stroke-width="1"/>
  <text x="585" y="595" text-anchor="middle" font-size="14" fill="#991b1b">N/A</text>
  <rect x="700" y="566" width="210" height="48" rx="4" fill="#ffc9c9" stroke="#e0e0e0" stroke-width="1"/>
  <text x="805" y="595" text-anchor="middle" font-size="14" fill="#991b1b">No awareness</text>
  <rect x="920" y="566" width="210" height="48" rx="4" fill="#ffc9c9" stroke="#e0e0e0" stroke-width="1"/>
  <text x="1025" y="595" text-anchor="middle" font-size="14" fill="#991b1b">Not included</text>

  <!-- Row 9 -->
  <rect x="10" y="624" width="240" height="48" rx="4" fill="#f0f0f0" stroke="#e0e0e0" stroke-width="1"/>
  <text x="130" y="653" text-anchor="middle" font-size="14" font-weight="500" fill="#1e1e1e">Feedback loop / retros</text>
  <rect x="260" y="624" width="210" height="48" rx="4" fill="#b2f2bb" stroke="#e0e0e0" stroke-width="1"/>
  <text x="365" y="653" text-anchor="middle" font-size="14" fill="#15803d">retrospectives/ built-in</text>
  <rect x="480" y="624" width="210" height="48" rx="4" fill="#fff3bf" stroke="#e0e0e0" stroke-width="1"/>
  <text x="585" y="653" text-anchor="middle" font-size="14" fill="#92400e">Sprint retros (manual)</text>
  <rect x="700" y="624" width="210" height="48" rx="4" fill="#ffc9c9" stroke="#e0e0e0" stroke-width="1"/>
  <text x="805" y="653" text-anchor="middle" font-size="14" fill="#991b1b">None</text>
  <rect x="920" y="624" width="210" height="48" rx="4" fill="#ffc9c9" stroke="#e0e0e0" stroke-width="1"/>
  <text x="1025" y="653" text-anchor="middle" font-size="14" fill="#991b1b">Not included</text>

  <!-- Row 10: Cost -->
  <rect x="10" y="682" width="240" height="48" rx="4" fill="#f8f8f8" stroke="#e0e0e0" stroke-width="1"/>
  <text x="130" y="711" text-anchor="middle" font-size="14" font-weight="500" fill="#1e1e1e">Cost</text>
  <rect x="260" y="682" width="210" height="48" rx="4" fill="#b2f2bb" stroke="#e0e0e0" stroke-width="1"/>
  <text x="365" y="711" text-anchor="middle" font-size="15" font-weight="600" fill="#15803d">Free (open source)</text>
  <rect x="480" y="682" width="210" height="48" rx="4" fill="#ffc9c9" stroke="#e0e0e0" stroke-width="1"/>
  <text x="585" y="711" text-anchor="middle" font-size="14" fill="#991b1b">$8-30/user/month</text>
  <rect x="700" y="682" width="210" height="48" rx="4" fill="#b2f2bb" stroke="#e0e0e0" stroke-width="1"/>
  <text x="805" y="711" text-anchor="middle" font-size="14" fill="#15803d">Free (no tool)</text>
  <rect x="920" y="682" width="210" height="48" rx="4" fill="#b2f2bb" stroke="#e0e0e0" stroke-width="1"/>
  <text x="1025" y="711" text-anchor="middle" font-size="14" fill="#15803d">Free (open source)</text>

  <!-- Row 11: Agent-agnostic -->
  <rect x="10" y="740" width="240" height="48" rx="4" fill="#1e1e1e"/>
  <text x="130" y="769" text-anchor="middle" font-size="14" font-weight="700" fill="#e5e5e5">AGENT-AGNOSTIC?</text>
  <rect x="260" y="740" width="210" height="48" rx="4" fill="#22c55e" stroke="#15803d" stroke-width="2"/>
  <text x="365" y="769" text-anchor="middle" font-size="16" font-weight="700" fill="white">YES — any tool</text>
  <rect x="480" y="740" width="210" height="48" rx="4" fill="#ffc9c9" stroke="#e0e0e0" stroke-width="1"/>
  <text x="585" y="769" text-anchor="middle" font-size="14" fill="#991b1b">Not agent-native</text>
  <rect x="700" y="740" width="210" height="48" rx="4" fill="#fff3bf" stroke="#e0e0e0" stroke-width="1"/>
  <text x="805" y="769" text-anchor="middle" font-size="14" fill="#92400e">Depends on tool</text>
  <rect x="920" y="740" width="210" height="48" rx="4" fill="#fff3bf" stroke="#e0e0e0" stroke-width="1"/>
  <text x="1025" y="769" text-anchor="middle" font-size="14" fill="#92400e">GitHub-centric</text>

  <!-- Legend -->
  <rect x="260" y="810" width="16" height="16" rx="3" fill="#b2f2bb" stroke="#22c55e" stroke-width="1"/>
  <text x="284" y="823" font-size="13" fill="#757575">Full support</text>
  <rect x="410" y="810" width="16" height="16" rx="3" fill="#fff3bf" stroke="#f59e0b" stroke-width="1"/>
  <text x="434" y="823" font-size="13" fill="#757575">Partial</text>
  <rect x="520" y="810" width="16" height="16" rx="3" fill="#ffc9c9" stroke="#ef4444" stroke-width="1"/>
  <text x="544" y="823" font-size="13" fill="#757575">Missing / inadequate</text>

  <!-- Bottom line -->
  <text x="600" y="860" text-anchor="middle" font-size="18" font-weight="600" fill="#1e1e1e">.ai/ is the only complete system — the rest solve one layer and leave the rest to you.</text>
</svg>
